<mxfile host="app.diagrams.net" modified="2023-11-15T13:19:53.913Z" agent="Mozilla/5.0 (Macintosh; Intel Mac OS X 10_15_7) AppleWebKit/605.1.15 (KHTML, like Gecko) Version/16.6 Safari/605.1.15" version="22.1.1" etag="PEJT4Le8j9mS_Me25FLz" type="github">
  <diagram name="Page-1" id="NYCgYMafiAWhOY5gQajY">
    <mxGraphModel>
      <root>
        <mxCell id="0" />
        <mxCell id="1" parent="0" />
      </root>
    </mxGraphModel>
  </diagram>
</mxfile>
